<svg id="Capa_1" enable-background="new 0 0 512 512" height="512" viewBox="0 0 512 512" width="512" xmlns="http://www.w3.org/2000/svg"><g><g><path d="m434.573 320.667v71.232c0 49.682-40.419 90.101-90.102 90.101h-88.471l-6.667 14 6.667 16h88.472c66.225 0 120.102-53.877 120.102-120.101v-71.232z" fill="#29376d"/><path d="m181.333 482h74.667v30h-74.667z" fill="#47568c"/></g><g><path d="m256 0-10.667 21.333 10.667 8.667c98.466 0 178.573 80.107 178.573 178.573v68.761l30-12.667v-56.094c0-115.008-93.565-208.573-208.573-208.573z" fill="#fdae02"/><path d="m47.427 208.573v56.094l30 10.667v-66.761c0-98.466 80.107-178.573 178.573-178.573v-30c-115.008 0-208.573 93.565-208.573 208.573z" fill="#fdcb02"/></g><path d="m372.376 264.4v119.098h27.197c35.841 0 65-29.159 65-65v-54.098z" fill="#6680ff"/><path d="m353.688 227.565h-48.688v192.768h48.688c26.847 0 48.689-21.841 48.689-48.688v-95.392c-.001-26.846-21.843-48.688-48.689-48.688z" fill="#cc295f"/><path d="m47.427 264.4v54.098c0 35.841 29.159 65 65 65h27.197v-119.098z" fill="#80aaff"/><path d="m158.313 227.565c-26.847 0-48.688 21.841-48.688 48.688v95.392c0 26.847 21.842 48.688 48.688 48.688h48.687v-192.768z" fill="#ff4d4d"/></g></svg>